<svg width="202" height="206" viewBox="0 0 202 206" fill="none" xmlns="http://www.w3.org/2000/svg">
<g filter="url(#filter0_i_801_87)">
<circle cx="101" cy="103" r="101" fill="#D9D9D9"/>
</g>
<circle cx="101" cy="103" r="100.75" stroke="black" stroke-width="0.5"/>
<path d="M98.1387 6.2V23H94.2507V9.32H90.8907V6.2H98.1387ZM113.609 19.832V23H100.913V20.48L107.393 14.36C108.081 13.704 108.545 13.144 108.785 12.68C109.025 12.2 109.145 11.728 109.145 11.264C109.145 10.592 108.913 10.08 108.449 9.728C108.001 9.36 107.337 9.176 106.457 9.176C105.721 9.176 105.057 9.32 104.465 9.608C103.873 9.88 103.377 10.296 102.977 10.856L100.145 9.032C100.801 8.056 101.705 7.296 102.857 6.752C104.009 6.192 105.329 5.912 106.817 5.912C108.065 5.912 109.153 6.12 110.081 6.536C111.025 6.936 111.753 7.512 112.265 8.264C112.793 9 113.057 9.872 113.057 10.88C113.057 11.792 112.865 12.648 112.481 13.448C112.097 14.248 111.353 15.16 110.249 16.184L106.385 19.832H113.609Z" fill="black"/>
<path d="M191.182 101.04C192.654 101.28 193.782 101.832 194.566 102.696C195.35 103.544 195.742 104.6 195.742 105.864C195.742 106.84 195.486 107.744 194.974 108.576C194.462 109.392 193.678 110.048 192.622 110.544C191.582 111.04 190.302 111.288 188.782 111.288C187.598 111.288 186.43 111.136 185.278 110.832C184.142 110.512 183.174 110.064 182.374 109.488L183.886 106.512C184.526 106.992 185.262 107.368 186.094 107.64C186.942 107.896 187.806 108.024 188.686 108.024C189.662 108.024 190.43 107.84 190.99 107.472C191.55 107.088 191.83 106.552 191.83 105.864C191.83 104.488 190.782 103.8 188.686 103.8H186.91V101.232L190.366 97.32H183.214V94.2H194.974V96.72L191.182 101.04Z" fill="black"/>
<path d="M102.383 189.464C103.455 189.464 104.431 189.68 105.311 190.112C106.191 190.544 106.887 191.16 107.399 191.96C107.911 192.744 108.167 193.656 108.167 194.696C108.167 195.816 107.887 196.8 107.327 197.648C106.767 198.496 105.999 199.152 105.023 199.616C104.063 200.064 102.991 200.288 101.807 200.288C99.4554 200.288 97.6154 199.568 96.2874 198.128C94.9594 196.688 94.2954 194.632 94.2954 191.96C94.2954 190.056 94.6554 188.424 95.3754 187.064C96.0954 185.704 97.0954 184.672 98.3754 183.968C99.6714 183.264 101.167 182.912 102.863 182.912C103.759 182.912 104.615 183.016 105.431 183.224C106.263 183.416 106.967 183.696 107.543 184.064L106.103 186.92C105.271 186.36 104.223 186.08 102.959 186.08C101.535 186.08 100.407 186.496 99.5754 187.328C98.7434 188.16 98.2954 189.368 98.2314 190.952C99.2234 189.96 100.607 189.464 102.383 189.464ZM101.591 197.384C102.423 197.384 103.095 197.16 103.607 196.712C104.135 196.264 104.399 195.656 104.399 194.888C104.399 194.12 104.135 193.512 103.607 193.064C103.095 192.6 102.407 192.368 101.543 192.368C100.695 192.368 99.9994 192.608 99.4554 193.088C98.9114 193.552 98.6394 194.152 98.6394 194.888C98.6394 195.624 98.9034 196.224 99.4314 196.688C99.9594 197.152 100.679 197.384 101.591 197.384Z" fill="black"/>
<path d="M11.1994 93.912C13.5514 93.912 15.3914 94.632 16.7194 96.072C18.0474 97.496 18.7114 99.552 18.7114 102.24C18.7114 104.144 18.3514 105.776 17.6314 107.136C16.9274 108.496 15.9274 109.528 14.6314 110.232C13.3354 110.936 11.8394 111.288 10.1434 111.288C9.24738 111.288 8.39138 111.192 7.57538 111C6.75938 110.792 6.06338 110.504 5.48738 110.136L6.92738 107.28C7.74338 107.84 8.79138 108.12 10.0714 108.12C11.4954 108.12 12.6234 107.704 13.4554 106.872C14.2874 106.024 14.7354 104.808 14.7994 103.224C13.7914 104.232 12.3994 104.736 10.6234 104.736C9.55138 104.736 8.57538 104.52 7.69538 104.088C6.81538 103.656 6.11938 103.048 5.60738 102.264C5.09538 101.464 4.83938 100.544 4.83938 99.504C4.83938 98.384 5.11938 97.4 5.67938 96.552C6.23938 95.704 6.99938 95.056 7.95938 94.608C8.93538 94.144 10.0154 93.912 11.1994 93.912ZM11.4874 101.832C12.3354 101.832 13.0234 101.6 13.5514 101.136C14.0954 100.656 14.3674 100.048 14.3674 99.312C14.3674 98.576 14.1034 97.976 13.5754 97.512C13.0634 97.048 12.3514 96.816 11.4394 96.816C10.6074 96.816 9.92738 97.04 9.39938 97.488C8.88738 97.936 8.63138 98.544 8.63138 99.312C8.63138 100.08 8.88738 100.696 9.39938 101.16C9.92738 101.608 10.6234 101.832 11.4874 101.832Z" fill="black"/>
<line x1="101.5" y1="28" x2="101.5" y2="33" stroke="black" stroke-width="5"/>
<line x1="109.629" y1="28.0493" x2="109.367" y2="31.0379" stroke="black"/>
<line x1="118.013" y1="29.0868" x2="117.492" y2="32.0412" stroke="black"/>
<line x1="124.871" y1="31.1806" x2="124.095" y2="34.0783" stroke="black"/>
<line x1="132.983" y1="34.2615" x2="131.957" y2="37.0805" stroke="black"/>
<line x1="139.993" y1="37.7744" x2="138.725" y2="40.4934" stroke="black" stroke-width="3"/>
<line x1="146.183" y1="42.4509" x2="144.683" y2="45.049" stroke="black"/>
<line x1="152.27" y1="47.558" x2="150.549" y2="50.0155" stroke="black"/>
<line x1="157.347" y1="52.6723" x2="155.419" y2="54.9705" stroke="black"/>
<line x1="162.414" y1="58.7929" x2="160.293" y2="60.9142" stroke="black"/>
<line x1="167.113" y1="65.685" x2="164.815" y2="67.6133" stroke="black" stroke-width="3"/>
<line x1="170.515" y1="72.0492" x2="168.058" y2="73.77" stroke="black"/>
<line x1="173.549" y1="80.183" x2="170.951" y2="81.683" stroke="black"/>
<line x1="175.58" y1="87.4569" x2="172.761" y2="88.483" stroke="black"/>
<line x1="176.564" y1="94.7319" x2="173.61" y2="95.2529" stroke="black"/>
<line x1="177" y1="102.5" x2="172" y2="102.5" stroke="black" stroke-width="5"/>
<line x1="176.868" y1="111.013" x2="173.913" y2="110.492" stroke="black"/>
<line x1="174.819" y1="118.871" x2="171.922" y2="118.095" stroke="black"/>
<line x1="172.739" y1="125.983" x2="169.92" y2="124.957" stroke="black"/>
<line x1="170.648" y1="133.087" x2="167.929" y2="131.819" stroke="black"/>
<line x1="167.049" y1="141.049" x2="164.451" y2="139.549" stroke="black" stroke-width="3"/>
<line x1="162.442" y1="146.27" x2="159.984" y2="144.549" stroke="black"/>
<line x1="157.328" y1="152.347" x2="155.029" y2="150.419" stroke="black"/>
<line x1="152.207" y1="158.414" x2="150.086" y2="156.293" stroke="black"/>
<line x1="146.081" y1="163.47" x2="144.153" y2="161.172" stroke="black"/>
<line x1="139.132" y1="167.089" x2="137.411" y2="164.632" stroke="black" stroke-width="3"/>
<line x1="132.817" y1="170.549" x2="131.317" y2="167.951" stroke="black"/>
<line x1="125.681" y1="173.571" x2="124.413" y2="170.852" stroke="black"/>
<line x1="117.405" y1="175.578" x2="116.629" y2="172.68" stroke="black"/>
<line x1="109.633" y1="177.038" x2="109.371" y2="174.049" stroke="black"/>
<line x1="101.5" y1="177" x2="101.5" y2="172" stroke="black" stroke-width="5"/>
<line x1="94.371" y1="176.951" x2="94.6325" y2="173.962" stroke="black"/>
<line x1="86.3206" y1="175.928" x2="86.6862" y2="172.95" stroke="black"/>
<line x1="79.2469" y1="173.89" x2="79.7678" y2="170.936" stroke="black"/>
<line x1="72.1289" y1="170.819" x2="72.9053" y2="167.922" stroke="black"/>
<line x1="63.951" y1="167.049" x2="65.451" y2="164.451" stroke="black" stroke-width="3"/>
<line x1="57.7301" y1="163.442" x2="59.4508" y2="160.985" stroke="black"/>
<line x1="51.6526" y1="158.328" x2="53.581" y2="156.03" stroke="black"/>
<line x1="46.5859" y1="153.207" x2="48.7072" y2="151.086" stroke="black"/>
<line x1="41.4847" y1="146.951" x2="43.9422" y2="145.23" stroke="black"/>
<line x1="36.9512" y1="139.951" x2="39.5492" y2="138.451" stroke="black" stroke-width="3"/>
<line x1="33.4293" y1="133.681" x2="36.1482" y2="132.413" stroke="black"/>
<line x1="30.4193" y1="126.543" x2="33.2384" y2="125.517" stroke="black"/>
<line x1="27.9219" y1="118.905" x2="30.8196" y2="118.129" stroke="black"/>
<line x1="26.9361" y1="111.768" x2="29.8905" y2="111.247" stroke="black"/>
<line x1="26" y1="102.5" x2="31" y2="102.5" stroke="black" stroke-width="5"/>
<line x1="27.0494" y1="95.3712" x2="30.038" y2="95.6326" stroke="black"/>
<line x1="28.1098" y1="88.2471" x2="31.0642" y2="88.768" stroke="black"/>
<line x1="30.1807" y1="80.1289" x2="33.0785" y2="80.9053" stroke="black"/>
<line x1="32.2613" y1="73.0171" x2="35.0804" y2="74.0432" stroke="black"/>
<line x1="36.9512" y1="64.951" x2="39.5492" y2="66.451" stroke="black" stroke-width="3"/>
<line x1="40.0583" y1="59.2301" x2="42.5157" y2="60.9508" stroke="black"/>
<line x1="45.1725" y1="53.1529" x2="47.4706" y2="55.0812" stroke="black"/>
<line x1="50.293" y1="47.0858" x2="52.4143" y2="49.2071" stroke="black"/>
<line x1="56.4187" y1="42.0296" x2="58.347" y2="44.3277" stroke="black"/>
<line x1="63.549" y1="37.4509" x2="65.049" y2="40.049" stroke="black" stroke-width="3"/>
<line x1="70.8194" y1="33.9292" x2="72.0872" y2="36.6481" stroke="black"/>
<line x1="77.9567" y1="30.9194" x2="78.9827" y2="33.7385" stroke="black"/>
<line x1="85.2321" y1="28.9359" x2="85.7531" y2="31.8903" stroke="black"/>
<line x1="93.3672" y1="27.9622" x2="93.6287" y2="30.9507" stroke="black"/>
<g filter="url(#filter1_i_801_87)">
<circle cx="101.5" cy="103.5" r="11.5" fill="#FFE600"/>
</g>
<circle cx="101.5" cy="103.5" r="11.25" stroke="black" stroke-width="0.5"/>
<circle cx="101.5" cy="103.5" r="9.45" fill="white" stroke="black" stroke-width="0.1"/>
<defs>
<filter id="filter0_i_801_87" x="0" y="2" width="202" height="202" filterUnits="userSpaceOnUse" color-interpolation-filters="sRGB">
<feFlood flood-opacity="0" result="BackgroundImageFix"/>
<feBlend mode="normal" in="SourceGraphic" in2="BackgroundImageFix" result="shape"/>
<feColorMatrix in="SourceAlpha" type="matrix" values="0 0 0 0 0 0 0 0 0 0 0 0 0 0 0 0 0 0 127 0" result="hardAlpha"/>
<feMorphology radius="10" operator="erode" in="SourceAlpha" result="effect1_innerShadow_801_87"/>
<feOffset/>
<feGaussianBlur stdDeviation="5"/>
<feComposite in2="hardAlpha" operator="arithmetic" k2="-1" k3="1"/>
<feColorMatrix type="matrix" values="0 0 0 0 0 0 0 0 0 0 0 0 0 0 0 0 0 0 0.25 0"/>
<feBlend mode="normal" in2="shape" result="effect1_innerShadow_801_87"/>
</filter>
<filter id="filter1_i_801_87" x="90" y="92" width="23" height="23" filterUnits="userSpaceOnUse" color-interpolation-filters="sRGB">
<feFlood flood-opacity="0" result="BackgroundImageFix"/>
<feBlend mode="normal" in="SourceGraphic" in2="BackgroundImageFix" result="shape"/>
<feColorMatrix in="SourceAlpha" type="matrix" values="0 0 0 0 0 0 0 0 0 0 0 0 0 0 0 0 0 0 127 0" result="hardAlpha"/>
<feMorphology radius="1" operator="erode" in="SourceAlpha" result="effect1_innerShadow_801_87"/>
<feOffset/>
<feGaussianBlur stdDeviation="2"/>
<feComposite in2="hardAlpha" operator="arithmetic" k2="-1" k3="1"/>
<feColorMatrix type="matrix" values="0 0 0 0 0 0 0 0 0 0 0 0 0 0 0 0 0 0 0.25 0"/>
<feBlend mode="normal" in2="shape" result="effect1_innerShadow_801_87"/>
</filter>
</defs>
</svg>
